<?xml version="1.0" encoding="UTF-8" standalone="no"?>
<!DOCTYPE svg PUBLIC "-//W3C//DTD SVG 1.1//EN" "http://www.w3.org/Graphics/SVG/1.1/DTD/svg11.dtd">
<!-- Created with Vectornator (http://vectornator.io/) -->
<svg height="100%" stroke-miterlimit="10" style="fill-rule:nonzero;clip-rule:evenodd;stroke-linecap:round;stroke-linejoin:round;" version="1.1" viewBox="0 0 1024 1024" width="100%" xml:space="preserve" xmlns="http://www.w3.org/2000/svg" xmlns:vectornator="http://vectornator.io" xmlns:xlink="http://www.w3.org/1999/xlink">
<defs/>
<g id="Layer-2-copy-copy" vectornator:layerName="Layer 2 copy copy">
<path d="M43.0259 512C43.0259 252.062 253.747 41.3411 513.685 41.3411C773.623 41.3411 984.344 252.062 984.344 512C984.344 771.938 773.623 982.659 513.685 982.659C253.747 982.659 43.0259 771.938 43.0259 512Z" fill="#8b8b8b" fill-rule="nonzero" opacity="1" stroke="none"/>
</g>
<g id="Layer-1" vectornator:layerName="Layer 1">
<path d="M323.602 683.078C323.602 577.852 394.217 492.55 481.324 492.55C568.431 492.55 639.046 577.852 639.046 683.078C639.046 788.304 568.431 873.606 481.324 873.606C394.217 873.606 323.602 788.304 323.602 683.078Z" fill="#d2d2d2" fill-rule="nonzero" opacity="1" stroke="none"/>
<path d="M502.028 637.922C502.028 555.14 557.581 488.031 626.11 488.031C694.638 488.031 750.192 555.14 750.192 637.922C750.192 720.705 694.638 787.813 626.11 787.813C557.581 787.813 502.028 720.705 502.028 637.922Z" fill="#d2d2d2" fill-rule="nonzero" opacity="1" stroke="none"/>
<path d="M328.677 570.06C328.677 477.055 391.09 401.66 468.08 401.66C545.071 401.66 607.484 477.055 607.484 570.06C607.484 663.064 545.071 738.459 468.08 738.459C391.09 738.459 328.677 663.064 328.677 570.06Z" fill="#d2d2d2" fill-rule="nonzero" opacity="1" stroke="none"/>
<path d="M652.899 660.949C652.899 610.752 686.585 570.06 728.139 570.06C769.693 570.06 803.379 610.752 803.379 660.949C803.379 711.147 769.693 751.839 728.139 751.839C686.585 751.839 652.899 711.147 652.899 660.949Z" fill="#d2d2d2" fill-rule="nonzero" opacity="1" stroke="none"/>
<path d="M52.5633 678.936C52.5633 618.805 92.9157 570.06 142.693 570.06C192.47 570.06 232.823 618.805 232.823 678.936C232.823 739.067 192.47 787.813 142.693 787.813C92.9157 787.813 52.5633 739.067 52.5633 678.936Z" fill="#d2d2d2" fill-rule="nonzero" opacity="1" stroke="none"/>
<path d="M153.219 644.138C153.219 539.106 223.703 453.961 310.649 453.961C397.596 453.961 468.08 539.106 468.08 644.138C468.08 749.17 397.596 834.315 310.649 834.315C223.703 834.315 153.219 749.17 153.219 644.138Z" fill="#d2d2d2" fill-rule="nonzero" opacity="1" stroke="none"/>
</g>
<g id="Layer-2-copy" vectornator:layerName="Layer 2 copy">
<path d="M641.502 72.5962C742.871 159.229 807.221 287.955 807.221 431.752C807.221 692.616 595.741 904.065 334.877 904.065C297.185 904.065 260.581 899.531 225.44 891.19C307.964 961.717 415 1004.41 532.065 1004.41C792.928 1004.41 1004.41 792.928 1004.41 532.065C1004.41 308.894 849.568 121.982 641.502 72.5962Z" fill="#d2d2d2" fill-rule="nonzero" opacity="1" stroke="#000000" stroke-linecap="butt" stroke-linejoin="round" stroke-width="0"/>
</g>
<g id="Layer-2-copy-copy-copy" vectornator:layerName="Layer 2 copy copy copy">
<path d="M621.438 52.5312C722.806 139.164 787.156 267.89 787.156 411.688C787.156 672.551 575.676 884 314.812 884C277.12 884 240.516 879.466 205.375 871.125C287.899 941.652 394.935 984.344 512 984.344C772.863 984.344 984.344 772.863 984.344 512C984.344 288.829 829.503 101.917 621.438 52.5312Z" fill="#ffffff" fill-rule="nonzero" opacity="1" stroke="#d2d2d2" stroke-linecap="butt" stroke-linejoin="round" stroke-width="4.93199"/>
</g>
<g id="Layer-2" vectornator:layerName="Layer 2">
<path d="M443.605 812.423C443.605 754.602 482.408 707.729 530.273 707.729C578.138 707.729 616.94 754.602 616.94 812.423C616.94 870.244 578.138 917.117 530.273 917.117C482.408 917.117 443.605 870.244 443.605 812.423Z" fill="#a3a3a3" fill-rule="nonzero" opacity="1" stroke="none"/>
<path d="M388.193 831.58C388.193 798.477 410.408 771.642 437.811 771.642C465.214 771.642 487.428 798.477 487.428 831.58C487.428 864.683 465.214 891.518 437.811 891.518C410.408 891.518 388.193 864.683 388.193 831.58Z" fill="#a3a3a3" fill-rule="nonzero" opacity="1" stroke="none"/>
<path d="M718.685 821.678C718.685 794.044 737.229 771.642 760.105 771.642C782.981 771.642 801.525 794.044 801.525 821.678C801.525 849.312 782.981 871.714 760.105 871.714C737.229 871.714 718.685 849.312 718.685 821.678Z" fill="#a3a3a3" fill-rule="nonzero" opacity="1" stroke="none"/>
<path d="M540.197 771.642C540.197 720.442 574.556 678.936 616.94 678.936C659.324 678.936 693.683 720.442 693.683 771.642C693.683 822.842 659.324 864.348 616.94 864.348C574.556 864.348 540.197 822.842 540.197 771.642Z" fill="#a3a3a3" fill-rule="nonzero" opacity="1" stroke="none"/>
<path d="M635.628 809.001C635.628 763.429 666.211 726.485 703.937 726.485C741.663 726.485 772.245 763.429 772.245 809.001C772.245 854.574 741.663 891.518 703.937 891.518C666.211 891.518 635.628 854.574 635.628 809.001Z" fill="#a3a3a3" fill-rule="nonzero" opacity="1" stroke="none"/>
<path d="M537.403 833.86C537.403 775.932 576.277 728.972 624.231 728.972C672.184 728.972 711.058 775.932 711.058 833.86C711.058 891.788 672.184 938.748 624.231 938.748C576.277 938.748 537.403 891.788 537.403 833.86Z" fill="#a3a3a3" fill-rule="nonzero" opacity="1" stroke="none"/>
</g>
</svg>
